<?xml version="1.0" standalone="no"?>
<!DOCTYPE svg PUBLIC "-//W3C//DTD SVG 20010904//EN"
 "http://www.w3.org/TR/2001/REC-SVG-20010904/DTD/svg10.dtd">
<svg version="1.0" xmlns="http://www.w3.org/2000/svg"
 width="512.000000pt" height="512.000000pt" viewBox="0 0 512.000000 512.000000"
 preserveAspectRatio="xMidYMid meet">
<metadata>
Created by potrace 1.14, written by Peter Selinger 2001-2017
</metadata>
<g transform="translate(0.000000,512.000000) scale(0.100000,-0.100000)"
fill="#000000" stroke="none">
<path d="M2435 4062 c-44 -5 -142 -30 -203 -52 -28 -11 -55 -19 -57 -19 -3 0
-45 -19 -93 -42 -130 -64 -196 -114 -327 -244 -69 -69 -78 -80 -132 -160 -78
-117 -159 -326 -168 -435 -1 -14 -5 -43 -10 -64 -4 -22 -9 -63 -9 -92 l-2 -53
76 1 76 0 1 142 c0 186 5 216 53 313 61 124 153 207 274 248 44 14 120 16 645
16 328 1 614 -2 636 -6 99 -18 220 -107 287 -212 55 -85 71 -160 71 -340 l0
-163 83 0 84 0 -6 77 c-3 42 -7 80 -10 85 -3 4 -7 25 -9 47 -13 124 -88 307
-188 456 -47 70 -212 236 -277 280 -25 16 -47 33 -50 36 -3 4 -43 27 -90 51
-113 59 -234 101 -350 124 -37 7 -255 11 -305 6z m-124 -228 c21 -19 14 -50
-14 -58 -24 -6 -33 -1 -47 24 -7 14 -6 23 6 34 20 20 33 20 55 0z"/>
<path d="M1595 3881 l-29 -31 32 -32 31 -32 26 24 c14 13 25 26 25 30 0 3 -12
21 -27 39 l-28 32 -30 -30z"/>
<path d="M3493 3886 c-24 -24 -30 -46 -14 -46 5 0 11 -9 14 -20 7 -28 32 -25
61 7 l26 27 -27 28 c-15 15 -29 28 -32 28 -3 0 -16 -11 -28 -24z"/>
<path d="M1353 3603 l-41 -47 26 -20 c15 -11 35 -31 46 -44 22 -28 23 -27 69
24 l37 41 -46 47 c-26 25 -47 46 -48 46 0 0 -20 -21 -43 -47z"/>
<path d="M3718 3626 c-15 -13 -37 -31 -49 -40 l-22 -15 34 -45 c19 -25 39 -46
44 -46 6 0 30 17 54 38 l44 38 -34 47 c-19 25 -36 46 -39 46 -3 0 -17 -10 -32
-23z"/>
<path d="M1940 3523 c-114 -29 -206 -124 -255 -263 -17 -49 -19 -83 -19 -325
l0 -270 32 -67 c37 -77 95 -132 156 -150 62 -18 137 -13 182 11 52 27 62 36
114 101 122 151 140 168 168 161 33 -9 88 2 150 31 68 32 163 32 219 0 39 -21
102 -31 140 -20 7 2 30 -18 51 -44 175 -210 237 -254 340 -246 106 9 182 70
230 186 22 50 23 66 22 307 0 140 -4 274 -9 298 -29 127 -109 229 -221 281
-44 20 -60 20 -645 22 -486 1 -611 -1 -655 -13z"/>
<path d="M1274 3302 c-40 -26 -14 -86 35 -80 36 4 53 52 25 73 -21 16 -43 19
-60 7z"/>
<path d="M3816 3295 c-10 -11 -13 -22 -7 -37 12 -34 36 -44 65 -28 29 15 30
18 16 54 -11 30 -49 35 -74 11z"/>
<path d="M1209 3011 c0 -3 -2 -29 -4 -58 l-3 -52 60 3 60 2 2 52 c0 29 -1 53
-4 53 -20 5 -110 4 -111 0z"/>
<path d="M3883 3012 c-39 -3 -43 -6 -44 -30 0 -15 -2 -39 -4 -55 l-4 -27 60 2
59 2 0 56 c0 39 -4 56 -12 56 -7 -1 -32 -2 -55 -4z"/>
<path d="M1032 2999 c-30 -11 -38 -36 -18 -58 28 -31 97 -12 92 25 -5 33 -36
47 -74 33z"/>
<path d="M4071 2994 c-38 -27 -24 -65 27 -72 31 -4 52 14 52 44 0 37 -44 52
-79 28z"/>
<path d="M1445 2776 c11 -97 16 -130 21 -138 3 -4 31 -6 62 -4 31 3 60 5 65 5
4 1 4 13 1 27 -4 14 -7 54 -8 88 l-1 61 -72 1 -72 0 4 -40z"/>
<path d="M3550 2735 c0 -41 0 -78 0 -82 0 -5 29 -9 66 -10 76 -2 79 2 90 107
l6 60 -81 0 -81 0 0 -75z"/>
<path d="M1274 2720 c-46 -18 -34 -80 15 -80 36 0 57 30 42 59 -13 24 -31 30
-57 21z"/>
<path d="M3837 2713 c-4 -3 -7 -19 -7 -35 0 -20 6 -31 22 -37 46 -17 74 8 62
55 -5 19 -13 24 -38 24 -18 0 -36 -3 -39 -7z"/>
<path d="M2550 2702 c-13 -2 -34 -10 -45 -18 -18 -13 -11 -15 67 -12 88 2 102
13 37 27 -19 3 -45 5 -59 3z"/>
<path d="M2236 2525 c-22 -27 -60 -67 -84 -87 l-43 -38 28 -1 c15 -1 32 -1 37
0 5 1 200 2 432 1 l423 0 -87 87 -86 88 -290 0 -289 0 -41 -50z"/>
<path d="M3519 2542 c-9 -1 -23 -16 -32 -32 -20 -33 -98 -100 -116 -100 -7 0
-10 -4 -7 -8 2 -4 58 -8 123 -7 l118 0 22 46 c12 25 23 58 25 73 3 28 2 28
-58 29 -33 1 -67 1 -75 -1z"/>
<path d="M1507 2487 c23 -83 25 -87 37 -88 25 -2 220 2 223 5 2 2 -15 15 -37
30 -22 14 -52 44 -66 66 l-26 39 -73 0 -73 0 15 -52z"/>
<path d="M1354 2462 c-10 -9 -31 -25 -47 -35 l-28 -18 43 -50 42 -50 42 42 43
42 -32 43 c-18 24 -35 43 -38 44 -3 0 -14 -8 -25 -18z"/>
<path d="M3737 2439 l-35 -43 42 -43 41 -42 45 45 c38 40 42 47 28 55 -10 5
-23 15 -30 22 -57 52 -52 52 -91 6z"/>
<path d="M1590 2288 c0 -14 36 -73 72 -120 l29 -37 870 -1 c478 0 874 -1 881
-3 11 -2 106 138 107 158 1 7 -311 11 -979 12 -672 1 -980 -2 -980 -9z"/>
<path d="M886 2015 c-74 -26 -143 -96 -170 -173 -51 -143 16 -303 151 -364 38
-18 66 -22 138 -21 99 0 126 8 197 56 l48 32 -3 120 -2 120 -125 -3 c-69 -2
-127 -8 -131 -13 -4 -7 -4 -71 0 -100 1 -3 28 -5 61 -4 l60 2 0 -32 c0 -36 -9
-42 -75 -56 -113 -22 -205 56 -205 175 0 134 157 197 275 112 18 -14 24 -12
65 25 55 49 51 60 -40 107 -57 29 -73 33 -136 31 -40 -1 -88 -7 -108 -14z"/>
<path d="M3090 2020 l-95 -5 -1 -277 -1 -276 133 3 c123 2 138 5 190 30 113
55 165 138 160 257 -4 118 -75 219 -177 253 -59 20 -82 22 -209 15z m193 -143
c15 -9 34 -28 43 -42 35 -53 26 -157 -18 -198 -27 -26 -87 -50 -135 -53 l-43
-3 0 158 c0 87 2 160 5 162 10 11 124 -8 148 -24z"/>
<path d="M3559 2010 c-3 -46 -4 -517 -1 -530 3 -13 32 -15 190 -15 l187 0 1
58 c0 45 -3 57 -15 58 -9 1 -64 1 -122 1 l-107 -1 -3 32 c-9 77 -8 78 94 77
51 -1 97 -1 104 -1 7 1 11 22 12 61 l0 61 -104 -4 c-58 -2 -106 0 -107 5 -2 5
-2 28 0 51 l4 43 109 -3 109 -3 0 60 0 60 -52 1 c-29 0 -108 1 -175 2 -103 2
-123 0 -124 -13z"/>
<path d="M4418 2022 l-66 -3 -38 -97 c-57 -147 -104 -246 -112 -236 -4 5 -32
82 -62 172 l-55 162 -66 0 c-36 0 -68 -2 -71 -5 -3 -3 15 -56 39 -118 77 -196
121 -310 143 -374 l22 -61 55 3 c66 3 56 -12 152 226 34 85 74 179 88 209 44
94 53 119 45 122 -4 2 -37 2 -74 0z"/>
<path d="M1491 1983 c-7 -21 -58 -143 -112 -271 -54 -128 -99 -237 -99 -243 0
-6 26 -9 66 -7 l67 3 20 53 20 52 98 0 98 0 19 -52 20 -53 66 -3 c76 -3 79 1
47 71 -35 78 -58 131 -132 309 l-74 178 -45 0 c-44 0 -47 -2 -59 -37z m84
-238 c9 -26 15 -48 12 -51 -3 -3 -23 -4 -45 -2 l-40 3 21 52 c12 28 24 50 28
48 3 -3 14 -25 24 -50z"/>
<path d="M1859 1850 c0 -93 0 -210 0 -260 0 -49 0 -99 0 -110 1 -19 6 -21 64
-18 l62 3 3 128 c1 73 7 127 12 127 6 0 10 -4 10 -9 0 -5 23 -46 50 -91 28
-45 50 -85 50 -88 0 -4 10 -20 23 -35 29 -36 47 -29 71 29 10 24 42 82 72 127
l54 82 0 -137 0 -138 65 0 c61 0 65 2 66 23 0 12 0 137 0 277 l0 255 -60 3
-60 3 -59 -113 c-80 -154 -116 -218 -122 -218 -7 0 -35 49 -111 195 l-68 130
-60 3 -61 3 -1 -171z"/>
<path d="M2549 2018 c-1 -2 -2 -128 -3 -280 l-1 -278 187 0 188 0 0 63 0 62
-112 0 c-62 -1 -118 0 -124 2 -6 2 -10 16 -8 31 1 15 2 36 3 48 1 19 6 20 106
18 58 -1 105 2 106 7 0 5 1 29 1 54 0 25 -1 49 -1 53 -1 5 -48 8 -106 7 -58 0
-105 1 -106 4 0 4 -1 26 -2 51 l-1 45 116 -2 c128 -2 124 -5 123 67 l0 45
-183 3 c-100 1 -183 1 -183 0z"/>
<path d="M1041 1313 c-22 -23 -28 -36 -24 -56 7 -33 38 -57 75 -57 30 0 32 3
42 43 6 25 4 27 -24 27 -34 0 -38 -7 -12 -26 16 -12 15 -13 -5 -14 -25 0 -43
25 -36 51 4 13 14 19 34 19 19 0 29 5 29 15 0 8 -4 15 -9 15 -5 0 -16 3 -25 6
-10 4 -27 -5 -45 -23z"/>
<path d="M1366 1309 l-26 -30 -12 26 c-21 46 -42 27 -43 -37 0 -63 16 -79 26
-26 4 18 7 29 8 23 1 -5 5 -17 11 -25 7 -12 12 -12 29 4 21 19 21 19 21 -12 0
-22 5 -32 15 -32 12 0 15 14 15 64 0 36 -4 67 -9 70 -5 4 -21 -8 -35 -25z"/>
<path d="M1443 1331 c-11 -7 -11 -107 0 -118 5 -4 24 -8 43 -8 26 -1 34 3 34
15 0 13 -6 16 -25 12 -15 -2 -25 0 -25 7 0 6 9 11 20 11 11 0 20 7 20 15 0 8
-9 15 -20 15 -12 0 -20 7 -20 16 0 9 6 14 13 11 16 -6 44 9 35 19 -9 9 -64 13
-75 5z"/>
<path d="M1734 1331 c-2 -2 -4 -32 -4 -67 l0 -62 44 0 c35 0 43 3 39 14 -3 8
-13 14 -23 14 -11 0 -22 5 -25 10 -3 6 3 10 13 10 11 0 22 7 26 15 4 11 -2 15
-20 15 -16 0 -24 5 -21 13 2 6 14 11 25 9 16 -2 22 2 22 16 0 16 -7 19 -36 18
-19 0 -37 -3 -40 -5z"/>
<path d="M1902 1299 l-17 -41 -13 36 c-7 20 -20 36 -28 36 -19 0 -18 -9 7 -75
28 -75 39 -70 84 38 13 31 13 36 -1 41 -11 4 -20 -6 -32 -35z"/>
<path d="M1960 1269 l0 -65 42 0 c24 1 43 6 46 14 2 6 0 12 -5 13 -46 4 -69
19 -29 19 33 0 31 23 -2 28 -12 2 -22 8 -22 13 0 9 5 11 33 13 12 1 27 15 27
27 0 3 -20 5 -45 5 l-45 -1 0 -66z"/>
<path d="M2194 1327 c-49 -27 -57 -75 -18 -106 15 -12 32 -21 39 -21 26 0 65
41 65 69 0 44 -50 78 -86 58z m50 -49 c6 -26 -17 -50 -40 -41 -14 5 -19 44 -7
56 14 15 41 6 47 -15z"/>
<path d="M2305 1332 c-3 -3 -5 -34 -5 -69 0 -50 3 -63 16 -63 8 0 13 4 10 8
-7 12 6 26 37 39 29 13 35 39 15 65 -13 16 -63 30 -73 20z m49 -53 c-10 -16
-24 -9 -24 12 0 18 2 19 15 9 8 -7 12 -16 9 -21z"/>
<path d="M2575 1331 c-18 -5 -21 -14 -20 -66 l1 -60 39 0 c22 0 40 5 43 13 2
7 -6 12 -22 12 -31 0 -35 20 -6 27 26 7 26 23 -1 23 -12 0 -19 5 -17 12 3 7
13 13 23 13 18 0 35 24 18 26 -4 0 -15 2 -23 3 -8 2 -24 0 -35 -3z"/>
<path d="M2659 1297 c-2 -57 -1 -89 5 -94 11 -11 26 10 26 35 l1 27 28 -35
c16 -19 32 -32 35 -30 3 3 6 35 8 70 2 54 0 65 -14 68 -13 3 -16 -2 -12 -22 6
-34 -12 -42 -31 -12 -28 43 -45 41 -46 -7z"/>
<path d="M2776 1324 c-3 -7 3 -15 13 -19 14 -4 17 -16 17 -55 -1 -40 2 -50 14
-48 9 2 16 15 16 33 1 17 2 38 3 48 1 9 7 17 15 17 8 0 13 8 12 17 -3 21 -82
27 -90 7z"/>
<path d="M2971 1331 c-7 -5 -14 -20 -14 -35 -1 -14 -8 -28 -14 -31 -18 -6 -16
-29 5 -48 23 -21 91 -18 90 3 0 8 3 23 6 32 6 13 3 15 -15 11 -19 -5 -21 -3
-15 13 12 32 12 35 -9 49 -12 9 -26 11 -34 6z m29 -31 c0 -5 -5 -10 -11 -10
-5 0 -7 5 -4 10 3 6 8 10 11 10 2 0 4 -4 4 -10z m-10 -60 c0 -5 -4 -10 -10
-10 -5 0 -10 5 -10 10 0 6 5 10 10 10 6 0 10 -4 10 -10z"/>
<path d="M3116 1331 c-1 -3 -2 -33 -2 -66 1 -46 5 -60 16 -60 8 0 14 6 12 13
-1 7 11 17 27 23 32 11 46 49 27 74 -11 15 -74 28 -80 16z m62 -43 c-7 -19
-35 -21 -35 -3 0 8 9 15 20 15 10 0 17 -5 15 -12z"/>
<path d="M3222 1288 c4 -58 10 -73 37 -88 14 -7 25 -5 43 10 20 15 25 29 27
69 2 70 -32 80 -35 11 -1 -14 -2 -31 -3 -37 -2 -20 -31 -15 -32 5 -1 9 -3 24
-4 32 -1 8 -3 23 -4 33 0 9 -8 17 -17 17 -12 0 -15 -10 -12 -52z"/>
<path d="M3469 1332 c0 -4 -1 -34 -1 -67 l0 -60 39 0 c27 0 38 4 38 15 0 9 -9
15 -25 15 -23 0 -24 3 -21 46 2 35 -2 48 -13 52 -9 4 -16 3 -17 -1z"/>
<path d="M3634 1315 c-18 -28 -9 -49 27 -60 28 -9 12 -26 -17 -19 -27 7 -32
-7 -9 -26 21 -17 62 -4 71 22 5 17 0 27 -20 43 -28 23 -35 41 -11 32 8 -4 17
-2 21 4 7 12 5 15 -23 23 -17 5 -26 1 -39 -19z"/>
<path d="M3732 1273 c2 -38 7 -67 13 -66 6 1 11 11 13 23 5 31 42 27 42 -6 0
-16 5 -24 13 -22 7 3 13 28 15 65 2 47 -1 62 -13 66 -11 5 -15 -1 -15 -23 0
-23 -4 -30 -20 -30 -11 0 -21 6 -21 13 -1 6 -2 18 -3 26 0 8 -7 16 -14 19 -10
3 -12 -12 -10 -65z"/>
<path d="M3999 1335 c-1 -3 -2 -14 -3 -24 -2 -31 -12 -33 -30 -6 -34 51 -57
21 -46 -59 6 -50 30 -61 30 -14 l1 33 29 -34 c16 -19 32 -32 36 -29 12 13 9
128 -3 133 -7 2 -14 2 -14 0z"/>
<path d="M4063 1314 c-28 -29 -30 -63 -3 -92 27 -28 65 -28 84 0 22 30 20 45
-5 53 -23 8 -48 -8 -30 -19 15 -10 14 -26 -3 -26 -21 0 -38 27 -31 50 4 14 15
20 36 20 37 0 39 26 2 33 -19 3 -33 -2 -50 -19z"/>
<path d="M1184 1303 c-41 -100 -42 -123 -6 -90 24 22 42 21 58 0 8 -12 16 -15
23 -8 11 12 -36 125 -53 125 -6 0 -16 -12 -22 -27z m26 -39 c0 -8 -5 -12 -10
-9 -6 4 -8 11 -5 16 9 14 15 11 15 -7z"/>
<path d="M1597 1278 c1 -29 2 -59 2 -65 1 -20 56 -15 85 8 29 23 33 54 10 87
-11 17 -25 22 -57 22 l-42 0 2 -52z m70 10 c13 -18 10 -37 -7 -48 -25 -16 -30
-12 -30 25 0 36 18 47 37 23z"/>
<path d="M2070 1266 l0 -64 35 0 c28 0 35 4 35 19 0 10 -3 18 -7 18 -27 -4
-33 4 -33 46 0 33 -4 45 -15 45 -12 0 -15 -14 -15 -64z"/>
<path d="M2409 1298 c0 -18 -2 -43 -3 -55 -3 -24 9 -51 18 -42 5 4 9 22 15 58
1 3 8 -4 17 -15 11 -13 17 -15 20 -6 9 19 22 14 26 -10 6 -47 23 -21 26 40 2
50 0 62 -12 62 -9 0 -23 -11 -32 -25 l-16 -25 -20 25 c-26 34 -38 31 -39 -7z"/>
<path d="M3359 1328 c-1 -2 -3 -30 -4 -64 l-4 -61 32 -1 c17 0 40 6 49 15 19
17 24 43 9 43 -5 0 -8 15 -7 33 1 30 -1 32 -36 35 -21 2 -39 2 -39 0z m46 -38
c3 -5 -1 -10 -9 -10 -9 0 -16 5 -16 10 0 6 4 10 9 10 6 0 13 -4 16 -10z m5
-45 c0 -8 -7 -15 -15 -15 -26 0 -18 20 13 29 1 1 2 -6 2 -14z"/>
<path d="M3564 1273 c1 -53 8 -72 28 -73 4 0 6 29 5 65 -1 53 -5 65 -18 65
-14 0 -16 -10 -15 -57z"/>
<path d="M3858 1285 c-4 -50 5 -85 22 -85 6 0 10 27 10 65 0 49 -3 65 -14 65
-9 0 -15 -15 -18 -45z"/>
</g>
</svg>
